# xmcd CD database file
#
# Track frame offsets:
#	150
#	18530
#	34287
#	50530
#	70482
#	86030
#	99972
#	119130
#	138017
#	154262
#	169834
#	185897
#	202640
#	218230
#	235935
#	252815
#
# Disc length: 3611 seconds
#
# Revision: 0
# Processed by: cddbd v1.4PL0 Copyright (c) Steve Scherf et al.
# Submitted via: CDex 1.50beta8
#
DISCID=e50e1910
DTITLE=Diversos - Music For Relaxation Vol. 7
DYEAR=1998
DGENRE=New Age
TTITLE0=Mandy´s Song
TTITLE1=Siderial Hour
TTITLE2=Magic Winds
TTITLE3=Endless Horizon
TTITLE4=The Writer Song
TTITLE5=Song Of The Mayas
TTITLE6=Alone In The Night
TTITLE7=In The Air
TTITLE8=Xenon
TTITLE9=Silver Valley
TTITLE10=Lanterna Magica
TTITLE11=Blue
TTITLE12=Indian Dreams
TTITLE13=Moments Of Love
TTITLE14=Morning Air
TTITLE15=Dreamin´
EXTD=YEAR: 1998
EXTT0=
EXTT1=
EXTT2=
EXTT3=
EXTT4=
EXTT5=
EXTT6=
EXTT7=
EXTT8=
EXTT9=
EXTT10=
EXTT11=
EXTT12=
EXTT13=
EXTT14=
EXTT15=
PLAYORDER=
